<svg id="Capa_1" enable-background="new 0 0 512 512" height="512" viewBox="0 0 512 512" width="512" xmlns="http://www.w3.org/2000/svg"><g id="XMLID_3026_"><g id="XMLID_1536_"><g id="XMLID_220_"><path id="XMLID_221_" d="m408 380.018h-159.667c-5.523 0-10 4.478-10 10s4.477 10 10 10h159.667c5.523 0 10-4.478 10-10s-4.477-10-10-10z"/><path id="XMLID_244_" d="m408 315.976h-159.667c-5.523 0-10 4.478-10 10s4.477 10 10 10h159.667c5.523 0 10-4.478 10-10s-4.477-10-10-10z"/><path id="XMLID_245_" d="m238.333 261.893c0 5.522 4.477 10 10 10h159.667c5.523 0 10-4.478 10-10 0-5.523-4.477-10-10-10h-159.667c-5.522 0-10 4.477-10 10z"/><path id="XMLID_246_" d="m189 380.018h-45c-5.523 0-10 4.478-10 10s4.477 10 10 10h45c5.523 0 10-4.478 10-10s-4.477-10-10-10z"/><path id="XMLID_247_" d="m189 315.976h-45c-5.523 0-10 4.478-10 10s4.477 10 10 10h45c5.523 0 10-4.478 10-10s-4.477-10-10-10z"/><path id="XMLID_248_" d="m189 251.893h-45c-5.523 0-10 4.477-10 10 0 5.522 4.477 10 10 10h45c5.523 0 10-4.478 10-10 0-5.523-4.477-10-10-10z"/><path id="XMLID_479_" d="m502 444h-30v-394c0-27.57-22.43-50-50-50h-372c-27.57 0-50 22.43-50 50v78c0 5.523 4.477 10 10 10h70v108.872c0 5.523 4.477 10 10 10s10-4.477 10-10v-196.872c0-11.247-3.735-21.637-10.027-30h332.027c16.542 0 30 13.458 30 30v394h-282c-5.523 0-10 4.478-10 10v8c0 16.542-13.458 30-30 30s-30-13.458-30-30v-125.128c0-5.522-4.477-10-10-10s-10 4.478-10 10v125.128c0 27.57 22.43 50 50 50h332c27.57 0 50-22.43 50-50v-8c0-5.522-4.477-10-10-10zm-422-394v68h-60v-68c0-16.542 13.458-30 30-30s30 13.458 30 30zm382 442h-292.027c5.917-7.864 9.562-17.523 9.977-28h311.985c-1.034 15.612-14.065 28-29.935 28z"/><path id="XMLID_481_" d="m322.346 79.872h85.654c5.523 0 10-4.477 10-10s-4.477-10-10-10h-85.654c-5.523 0-10 4.477-10 10s4.477 10 10 10z"/><path id="XMLID_482_" d="m322.346 143.872h85.654c5.523 0 10-4.477 10-10s-4.477-10-10-10h-85.654c-5.523 0-10 4.477-10 10s4.477 10 10 10z"/><path id="XMLID_483_" d="m322.346 207.872h85.654c5.523 0 10-4.477 10-10s-4.477-10-10-10h-85.654c-5.523 0-10 4.477-10 10s4.477 10 10 10z"/><path id="XMLID_484_" d="m90 301.87c2.63 0 5.21-1.061 7.07-2.931 1.86-1.859 2.93-4.439 2.93-7.069s-1.07-5.21-2.93-7.07-4.44-2.93-7.07-2.93-5.21 1.069-7.07 2.93c-1.86 1.86-2.93 4.44-2.93 7.07s1.07 5.21 2.93 7.069c1.86 1.871 4.44 2.931 7.07 2.931z"/><path id="XMLID_487_" d="m130 173.689v24.183c0 5.523 4.477 10 10 10h124c5.523 0 10-4.477 10-10v-24.183c0-22.359-16.039-41.035-37.214-45.148 4.066-6.386 6.434-13.955 6.434-22.071v-5.378c0-22.729-18.491-41.219-41.22-41.219s-41.22 18.491-41.22 41.219v5.378c0 8.116 2.367 15.685 6.434 22.071-21.175 4.113-37.214 22.789-37.214 45.148zm50.78-72.598c0-11.7 9.519-21.219 21.22-21.219s21.22 9.519 21.22 21.219v5.378c0 11.7-9.519 21.219-21.22 21.219s-21.22-9.519-21.22-21.219zm-30.78 72.598c0-14.336 11.664-26 26-26h52c14.336 0 26 11.664 26 26v14.183h-104z"/></g></g></g></svg>