<?xml version="1.0" encoding="iso-8859-1"?>
<!-- Generator: Adobe Illustrator 19.0.0, SVG Export Plug-In . SVG Version: 6.00 Build 0)  -->
<svg version="1.1" id="Capa_1" xmlns="http://www.w3.org/2000/svg" xmlns:xlink="http://www.w3.org/1999/xlink" x="0px" y="0px"
	 viewBox="0 0 512 512" style="enable-background:new 0 0 512 512;" xml:space="preserve">
<g>
	<g>
		<g>
			<path d="M256,298.667c58.813,0,106.667-47.854,106.667-106.667S314.813,85.333,256,85.333S149.333,133.188,149.333,192
				S197.188,298.667,256,298.667z M256,106.667c47.063,0,85.333,38.281,85.333,85.333S303.063,277.333,256,277.333
				S170.667,239.052,170.667,192S208.938,106.667,256,106.667z"/>
			<path d="M489.813,497.135l-64-149.333c-1.688-3.927-5.542-6.469-9.813-6.469h-37.878l13.086-13.042
				C427.833,291.938,448,243.542,448,192C448,86.135,361.875,0,256,0S64,86.135,64,192c0,51.542,20.167,99.938,56.792,136.271
				l13.104,13.063H96c-4.271,0-8.125,2.542-9.813,6.469l-64,149.333c-1.396,3.292-1.063,7.073,0.917,10.073
				C25.063,510.198,28.417,512,32,512h448c3.583,0,6.938-1.802,8.896-4.792C490.875,504.208,491.208,500.427,489.813,497.135z
				 M85.333,192c0-94.104,76.563-170.667,170.667-170.667S426.667,97.896,426.667,192c0,45.813-17.938,88.833-50.5,121.167
				L256,432.938L135.833,313.146C103.271,280.833,85.333,237.813,85.333,192z M48.167,490.667l54.875-128h52.255l93.182,92.885
				c2.063,2.073,4.792,3.115,7.521,3.115s5.458-1.042,7.521-3.115l93.197-92.885h52.241l54.875,128H48.167z"/>
		</g>
	</g>
</g>
<g>
</g>
<g>
</g>
<g>
</g>
<g>
</g>
<g>
</g>
<g>
</g>
<g>
</g>
<g>
</g>
<g>
</g>
<g>
</g>
<g>
</g>
<g>
</g>
<g>
</g>
<g>
</g>
<g>
</g>
</svg>
