<svg id="Capa_1" enable-background="new 0 0 512 512" height="512" viewBox="0 0 512 512" width="512" xmlns="http://www.w3.org/2000/svg"><g><g><path d="m178.391 247.337h19.525c48.4 0 88.224-37.423 92.052-84.854h17.373c-3.868 56.992-51.469 102.18-109.425 102.18h-11.112c-4.143 0-7.5 3.357-7.5 7.5v26.104c0 4.143 3.357 7.5 7.5 7.5s7.5-3.357 7.5-7.5v-18.604h3.612c68.748 0 124.679-55.931 124.679-124.68 0-4.143-3.357-7.5-7.5-7.5h-8.663v-93.515c0-15.275-12.428-27.703-27.703-27.703h-8.662v-8.663c-.001-9.706-7.897-17.602-17.602-17.602h-14.143c-9.705 0-17.602 7.896-17.602 17.602v32.325c0 9.705 7.896 17.602 17.602 17.602h14.143c9.705 0 17.602-7.896 17.602-17.602v-8.662h8.662c7.005 0 12.703 5.698 12.703 12.703v93.516h-8.662c-4.143 0-7.5 3.357-7.5 7.5 0 42.653-34.7 77.354-77.354 77.354h-19.525c-4.143 0-7.5 3.357-7.5 7.5s3.357 7.499 7.5 7.499zm76.675-197.41c0 1.435-1.167 2.602-2.602 2.602h-14.143c-1.435 0-2.602-1.167-2.602-2.602v-32.325c0-1.435 1.167-2.602 2.602-2.602h14.143c1.435 0 2.602 1.167 2.602 2.602z"/><path d="m493.312 106.496c0-37.557-30.554-68.11-68.109-68.11-6.733 0-13.39.982-19.783 2.92-3.964 1.201-6.204 5.389-5.003 9.353 1.201 3.965 5.391 6.204 9.353 5.003 4.982-1.51 10.176-2.275 15.434-2.275 29.284 0 53.109 23.825 53.109 53.11 0 29.284-23.825 53.109-53.109 53.109s-53.109-23.825-53.109-53.109c0-12.434 4.384-24.524 12.345-34.045 2.657-3.177 2.234-7.907-.943-10.564-3.177-2.658-7.908-2.236-10.564.943-10.213 12.214-15.837 27.721-15.837 43.666 0 35.02 26.571 63.941 60.609 67.688v287.89c0 19.259-15.668 34.927-34.927 34.927s-34.927-15.668-34.927-34.927v-123.24c0-27.529-22.397-49.927-49.927-49.927s-49.927 22.397-49.927 49.927v123.24c0 19.259-15.668 34.927-34.927 34.927s-34.927-15.668-34.927-34.927v-94.526h8.662c4.143 0 7.5-3.357 7.5-7.5v-26.689c0-4.143-3.357-7.5-7.5-7.5s-7.5 3.357-7.5 7.5v19.189h-17.325v-80.384c0-4.143-3.357-7.5-7.5-7.5h-11.111c-57.956 0-105.557-45.188-109.425-102.18h17.373c3.828 47.431 43.651 84.854 92.052 84.854 4.143 0 7.5-3.357 7.5-7.5s-3.357-7.5-7.5-7.5c-42.653 0-77.354-34.7-77.354-77.354 0-4.143-3.357-7.5-7.5-7.5h-8.663v-93.517c0-7.005 5.698-12.703 12.703-12.703h8.663v8.662c0 9.705 7.896 17.602 17.602 17.602h14.142c9.705 0 17.602-7.896 17.602-17.602v-32.325c-.002-9.706-7.899-17.602-17.604-17.602h-14.142c-9.705 0-17.602 7.896-17.602 17.602v8.663h-8.663c-15.275 0-27.703 12.428-27.703 27.703v93.516h-8.662c-4.143 0-7.5 3.357-7.5 7.5 0 68.749 55.931 124.68 124.679 124.68h3.611v80.384c0 4.143 3.357 7.5 7.5 7.5h8.663v94.526c0 27.529 22.397 49.927 49.927 49.927s49.927-22.397 49.927-49.927v-123.24c0-19.259 15.668-34.927 34.927-34.927s34.927 15.668 34.927 34.927v123.24c0 27.529 22.397 49.927 49.927 49.927s49.927-22.397 49.927-49.927v-287.89c34.038-3.747 60.609-32.668 60.609-67.688zm-407.095-88.894c0-1.435 1.167-2.602 2.602-2.602h14.142c1.435 0 2.602 1.167 2.602 2.602v32.325c0 1.435-1.167 2.602-2.602 2.602h-14.143c-1.435 0-2.602-1.167-2.602-2.602v-32.325z"/><path d="m452.905 106.496c0-15.275-12.428-27.703-27.703-27.703s-27.703 12.428-27.703 27.703 12.428 27.703 27.703 27.703 27.703-12.428 27.703-27.703zm-40.406 0c0-7.005 5.698-12.703 12.703-12.703s12.703 5.698 12.703 12.703-5.698 12.703-12.703 12.703-12.703-5.698-12.703-12.703z"/></g></g></svg>